<svg width="30" height="30" viewBox="0 0 30 30" fill="none" xmlns="http://www.w3.org/2000/svg">
<circle cx="15.2674" cy="14.6535" r="14.6535" fill="#4E6297"/>
<path d="M21.8615 10.1245C21.8615 9.02736 20.8934 8.05933 19.7963 8.05933H11.4712C10.374 8.05933 9.40601 9.02736 9.40601 10.1245V18.4496C9.40601 19.5467 10.374 20.5148 11.4712 20.5148H15.666V15.8036H14.1171V13.7385H15.666V12.8995C15.666 11.4797 16.6986 10.2535 17.9893 10.2535H19.6672V12.3187H17.9893C17.7957 12.3187 17.6021 12.5123 17.6021 12.8995V13.7385H19.6672V15.8036H17.6021V20.5148H19.7963C20.8934 20.5148 21.8615 19.5467 21.8615 18.4496V10.1245Z" fill="white"/>
</svg>
