<svg width="30" height="30" viewBox="0 0 30 30" fill="none" xmlns="http://www.w3.org/2000/svg">
<circle cx="14.6535" cy="14.6535" r="14.6535" fill="url(#paint0_radial)"/>
<circle cx="14.6535" cy="14.6535" r="14.6535" fill="url(#paint1_radial)"/>
<path d="M12.3426 14.6933C12.3426 13.3958 13.3941 12.3437 14.6915 12.3437C15.989 12.3437 17.0411 13.3958 17.0411 14.6933C17.0411 15.9907 15.989 17.0428 14.6915 17.0428C13.3941 17.0428 12.3426 15.9907 12.3426 14.6933ZM11.0725 14.6933C11.0725 16.6921 12.6927 18.3123 14.6915 18.3123C16.6904 18.3123 18.3106 16.6921 18.3106 14.6933C18.3106 12.6944 16.6904 11.0742 14.6915 11.0742C12.6927 11.0742 11.0725 12.6944 11.0725 14.6933ZM17.6081 10.9307C17.6081 11.098 17.6576 11.2615 17.7505 11.4006C17.8433 11.5398 17.9754 11.6482 18.1299 11.7123C18.2844 11.7764 18.4545 11.7932 18.6185 11.7606C18.7826 11.728 18.9334 11.6476 19.0517 11.5293C19.17 11.4111 19.2506 11.2604 19.2833 11.0964C19.316 10.9323 19.2993 10.7623 19.2354 10.6077C19.1714 10.4531 19.0631 10.321 18.924 10.228C18.785 10.135 18.6215 10.0853 18.4542 10.0853H18.4539C18.2297 10.0854 18.0147 10.1745 17.8561 10.333C17.6975 10.4915 17.6083 10.7065 17.6081 10.9307ZM11.8442 20.4302C11.157 20.3989 10.7835 20.2844 10.5353 20.1877C10.2063 20.0596 9.97148 19.907 9.72463 19.6605C9.47778 19.414 9.32498 19.1794 9.19744 18.8504C9.10069 18.6023 8.98623 18.2287 8.95499 17.5415C8.92082 16.7986 8.914 16.5755 8.914 14.6933C8.914 12.8112 8.92138 12.5886 8.95499 11.8451C8.98628 11.1579 9.10159 10.7851 9.19744 10.5362C9.32554 10.2072 9.47812 9.9724 9.72463 9.72555C9.97114 9.4787 10.2057 9.3259 10.5353 9.19836C10.7834 9.1016 11.157 8.98715 11.8442 8.95591C12.5871 8.92174 12.8102 8.91492 14.6915 8.91492C16.5729 8.91492 16.7962 8.9223 17.5398 8.95591C18.2269 8.9872 18.5998 9.10251 18.8486 9.19836C19.1777 9.3259 19.4125 9.47904 19.6593 9.72555C19.9062 9.97206 20.0584 10.2072 20.1865 10.5362C20.2833 10.7843 20.3977 11.1579 20.429 11.8451C20.4631 12.5886 20.4699 12.8112 20.4699 14.6933C20.4699 16.5755 20.4631 16.798 20.429 17.5415C20.3977 18.2287 20.2826 18.6022 20.1865 18.8504C20.0584 19.1794 19.9058 19.4142 19.6593 19.6605C19.4128 19.9068 19.1777 20.0596 18.8486 20.1877C18.6005 20.2845 18.2269 20.3989 17.5398 20.4302C16.7969 20.4643 16.5737 20.4711 14.6915 20.4711C12.8094 20.4711 12.5868 20.4643 11.8442 20.4302ZM11.7858 7.68795C11.0355 7.72211 10.5228 7.84109 10.0751 8.01531C9.61135 8.19523 9.21881 8.43661 8.82655 8.82826C8.43428 9.2199 8.19352 9.61306 8.0136 10.0768C7.83938 10.5248 7.72041 11.0372 7.68624 11.7875C7.6515 12.539 7.64355 12.7792 7.64355 14.6933C7.64355 16.6073 7.6515 16.8475 7.68624 17.599C7.72041 18.3494 7.83938 18.8617 8.0136 19.3097C8.19352 19.7732 8.43434 20.1668 8.82655 20.5583C9.21875 20.9497 9.61135 21.1908 10.0751 21.3712C10.5236 21.5454 11.0355 21.6644 11.7858 21.6986C12.5377 21.7327 12.7775 21.7413 14.6915 21.7413C16.6056 21.7413 16.8458 21.7333 17.5973 21.6986C18.3477 21.6644 18.86 21.5454 19.308 21.3712C19.7715 21.1908 20.1643 20.9499 20.5566 20.5583C20.9488 20.1666 21.1891 19.7732 21.3695 19.3097C21.5437 18.8617 21.6633 18.3493 21.6969 17.599C21.731 16.847 21.739 16.6073 21.739 14.6933C21.739 12.7792 21.731 12.539 21.6969 11.7875C21.6627 11.0372 21.5437 10.5245 21.3695 10.0768C21.1891 9.61335 20.9482 9.22052 20.5566 8.82826C20.1649 8.43599 19.7715 8.19523 19.3086 8.01531C18.86 7.84109 18.3476 7.72155 17.5979 7.68795C16.8464 7.65378 16.6061 7.64526 14.6921 7.64526C12.7781 7.64526 12.5377 7.65321 11.7858 7.68795Z" fill="white"/>
<path d="M12.3426 14.6933C12.3426 13.3958 13.3941 12.3437 14.6915 12.3437C15.989 12.3437 17.0411 13.3958 17.0411 14.6933C17.0411 15.9907 15.989 17.0428 14.6915 17.0428C13.3941 17.0428 12.3426 15.9907 12.3426 14.6933ZM11.0725 14.6933C11.0725 16.6921 12.6927 18.3123 14.6915 18.3123C16.6904 18.3123 18.3106 16.6921 18.3106 14.6933C18.3106 12.6944 16.6904 11.0742 14.6915 11.0742C12.6927 11.0742 11.0725 12.6944 11.0725 14.6933ZM17.6081 10.9307C17.6081 11.098 17.6576 11.2615 17.7505 11.4006C17.8433 11.5398 17.9754 11.6482 18.1299 11.7123C18.2844 11.7764 18.4545 11.7932 18.6185 11.7606C18.7826 11.728 18.9334 11.6476 19.0517 11.5293C19.17 11.4111 19.2506 11.2604 19.2833 11.0964C19.316 10.9323 19.2993 10.7623 19.2354 10.6077C19.1714 10.4531 19.0631 10.321 18.924 10.228C18.785 10.135 18.6215 10.0853 18.4542 10.0853H18.4539C18.2297 10.0854 18.0147 10.1745 17.8561 10.333C17.6975 10.4915 17.6083 10.7065 17.6081 10.9307ZM11.8442 20.4302C11.157 20.3989 10.7835 20.2844 10.5353 20.1877C10.2063 20.0596 9.97148 19.907 9.72463 19.6605C9.47778 19.414 9.32498 19.1794 9.19744 18.8504C9.10069 18.6023 8.98623 18.2287 8.95499 17.5415C8.92082 16.7986 8.914 16.5755 8.914 14.6933C8.914 12.8112 8.92138 12.5886 8.95499 11.8451C8.98628 11.1579 9.10159 10.7851 9.19744 10.5362C9.32554 10.2072 9.47812 9.9724 9.72463 9.72555C9.97114 9.4787 10.2057 9.3259 10.5353 9.19836C10.7834 9.1016 11.157 8.98715 11.8442 8.95591C12.5871 8.92174 12.8102 8.91492 14.6915 8.91492C16.5729 8.91492 16.7962 8.9223 17.5398 8.95591C18.2269 8.9872 18.5998 9.10251 18.8486 9.19836C19.1777 9.3259 19.4125 9.47904 19.6593 9.72555C19.9062 9.97206 20.0584 10.2072 20.1865 10.5362C20.2833 10.7843 20.3977 11.1579 20.429 11.8451C20.4631 12.5886 20.4699 12.8112 20.4699 14.6933C20.4699 16.5755 20.4631 16.798 20.429 17.5415C20.3977 18.2287 20.2826 18.6022 20.1865 18.8504C20.0584 19.1794 19.9058 19.4142 19.6593 19.6605C19.4128 19.9068 19.1777 20.0596 18.8486 20.1877C18.6005 20.2845 18.2269 20.3989 17.5398 20.4302C16.7969 20.4643 16.5737 20.4711 14.6915 20.4711C12.8094 20.4711 12.5868 20.4643 11.8442 20.4302ZM11.7858 7.68795C11.0355 7.72211 10.5228 7.84109 10.0751 8.01531C9.61135 8.19523 9.21881 8.43661 8.82655 8.82826C8.43428 9.2199 8.19352 9.61306 8.0136 10.0768C7.83938 10.5248 7.72041 11.0372 7.68624 11.7875C7.6515 12.539 7.64355 12.7792 7.64355 14.6933C7.64355 16.6073 7.6515 16.8475 7.68624 17.599C7.72041 18.3494 7.83938 18.8617 8.0136 19.3097C8.19352 19.7732 8.43434 20.1668 8.82655 20.5583C9.21875 20.9497 9.61135 21.1908 10.0751 21.3712C10.5236 21.5454 11.0355 21.6644 11.7858 21.6986C12.5377 21.7327 12.7775 21.7413 14.6915 21.7413C16.6056 21.7413 16.8458 21.7333 17.5973 21.6986C18.3477 21.6644 18.86 21.5454 19.308 21.3712C19.7715 21.1908 20.1643 20.9499 20.5566 20.5583C20.9488 20.1666 21.1891 19.7732 21.3695 19.3097C21.5437 18.8617 21.6633 18.3493 21.6969 17.599C21.731 16.847 21.739 16.6073 21.739 14.6933C21.739 12.7792 21.731 12.539 21.6969 11.7875C21.6627 11.0372 21.5437 10.5245 21.3695 10.0768C21.1891 9.61335 20.9482 9.22052 20.5566 8.82826C20.1649 8.43599 19.7715 8.19523 19.3086 8.01531C18.86 7.84109 18.3476 7.72155 17.5979 7.68795C16.8464 7.65378 16.6061 7.64526 14.6921 7.64526C12.7781 7.64526 12.5377 7.65321 11.7858 7.68795Z" fill="white"/>
<defs>
<radialGradient id="paint0_radial" cx="0" cy="0" r="1" gradientUnits="userSpaceOnUse" gradientTransform="translate(3.89376 29.4454) scale(38.2593 38.2577)">
<stop offset="0.09" stop-color="#FA8F21"/>
<stop offset="0.78" stop-color="#D82D7E"/>
</radialGradient>
<radialGradient id="paint1_radial" cx="0" cy="0" r="1" gradientUnits="userSpaceOnUse" gradientTransform="translate(17.7741 30.7583) scale(30.1536 30.1524)">
<stop stop-color="#8C3AAA" stop-opacity="0"/>
<stop offset="0.64" stop-color="#8C3AAA" stop-opacity="0"/>
<stop offset="1" stop-color="#8C3AAA"/>
</radialGradient>
</defs>
</svg>
