<svg width="30" height="30" viewBox="0 0 30 30" fill="none" xmlns="http://www.w3.org/2000/svg">
<circle cx="14.9604" cy="14.6535" r="14.6535" fill="#55ACE3"/>
<path d="M22.7267 10.9167C22.2138 11.1365 21.6277 11.2831 21.0416 11.3563C21.6277 10.99 22.1406 10.4039 22.3604 9.74446C21.7742 10.1108 21.1881 10.3306 20.4554 10.4771C19.9426 9.891 19.1366 9.52466 18.3307 9.52466C16.7188 9.52466 15.4 10.8435 15.4 12.4554C15.4 12.6752 15.4 12.895 15.4733 13.1148C13.0554 12.9682 10.8574 11.7959 9.39207 10.0375C9.17227 10.4771 9.02573 10.99 9.02573 11.5029C9.02573 12.5286 9.53861 13.4078 10.3445 13.9207C9.83168 13.9207 9.39207 13.7742 9.02573 13.5544C9.02573 14.9464 10.0515 16.192 11.3703 16.4118C11.1505 16.4851 10.8574 16.4851 10.5644 16.4851C10.3446 16.4851 10.198 16.4851 9.97821 16.4118C10.3445 17.5841 11.4436 18.4633 12.7624 18.4633C11.7366 19.2692 10.4911 19.7088 9.09901 19.7088C8.8792 19.7088 8.6594 19.7088 8.36633 19.6356C9.68514 20.4415 11.2238 20.9544 12.9089 20.9544C18.3307 20.9544 21.2614 16.4851 21.2614 12.6019V12.2355C21.8475 12.0157 22.3604 11.5029 22.7267 10.9167Z" fill="white"/>
</svg>
