<svg width="31" height="30" viewBox="0 0 31 30" fill="none" xmlns="http://www.w3.org/2000/svg">
<circle cx="15.5742" cy="14.6535" r="14.6535" fill="#F40000"/>
<path d="M21.9582 13.857C21.9582 13.5729 21.9108 13.2413 21.9108 12.8624C21.8634 12.4835 21.8161 12.1045 21.7687 11.773C21.674 11.3941 21.5319 11.1099 21.2477 10.8731C21.0109 10.6362 20.6793 10.4941 20.3478 10.4468C19.2584 10.3047 17.648 10.2573 15.4692 10.2573C13.2904 10.2573 11.6326 10.3047 10.5906 10.4468C10.2591 10.4941 9.92752 10.6362 9.6907 10.8731C9.45387 11.1099 9.26441 11.3941 9.16968 11.773C9.07495 12.1045 9.02759 12.4361 9.02759 12.8624C8.98023 13.2413 8.98022 13.5729 8.98022 13.857C8.98022 14.1412 8.98022 14.4728 8.98022 14.9464C8.98022 15.4201 8.98022 15.799 8.98022 16.0358C8.98022 16.32 9.02759 16.6516 9.02759 17.0305C9.07496 17.4094 9.12232 17.7883 9.16968 18.1199C9.26441 18.4988 9.40651 18.783 9.6907 19.0198C9.92752 19.2566 10.2591 19.3987 10.5906 19.4461C11.68 19.5882 13.2904 19.6355 15.4692 19.6355C17.648 19.6355 19.3057 19.5882 20.3478 19.4461C20.6793 19.3987 21.0109 19.2566 21.2477 19.0198C21.4845 18.783 21.674 18.4988 21.7687 18.1199C21.8634 17.7883 21.9108 17.4568 21.9108 17.0305C21.9582 16.6516 21.9582 16.32 21.9582 16.0358C21.9582 15.7516 21.9582 15.4201 21.9582 14.9464C21.9582 14.4728 21.9582 14.0939 21.9582 13.857ZM17.9795 15.3253L14.2377 17.6462C14.1903 17.6936 14.0956 17.741 14.0009 17.741C13.9062 17.741 13.8588 17.741 13.7641 17.6936C13.622 17.5989 13.5272 17.4568 13.5272 17.2673V12.5782C13.5272 12.3887 13.622 12.2466 13.7641 12.1519C13.9062 12.0572 14.0956 12.0572 14.2377 12.1519L17.9795 14.4728C18.1216 14.5675 18.2163 14.7096 18.2163 14.8517C18.2163 14.9938 18.1216 15.2306 17.9795 15.3253Z" fill="white"/>
</svg>
